<svg width="61" height="57" viewBox="0 0 61 57" fill="none" xmlns="http://www.w3.org/2000/svg">
<path d="M51.1666 12.4688C46.181 12.4688 42.1389 16.4566 42.1389 21.3751C42.1389 25.0311 44.3744 28.1639 47.5679 29.5366V38.2981C47.5679 44.6716 41.8974 49.8762 34.9291 49.8762C28.1582 49.8762 22.5949 44.9666 22.3014 38.8291C30.414 37.1614 36.7222 29.9808 36.7222 21.2749V4.07359C36.7222 2.80668 35.8025 1.6934 34.5465 1.45738L27.4461 0.0532565C25.9791 -0.23898 24.564 0.695174 24.2684 2.14289L23.9027 3.89547C23.6065 5.34273 24.5586 6.74436 26.0254 7.03715L29.4887 7.71168V21.2304C29.4887 27.1174 24.7344 31.988 18.7535 32.0437C12.7297 32.0993 7.82879 27.3055 7.82879 21.364L7.82089 7.72293L11.2876 7.04249C12.7546 6.76417 13.7036 5.35587 13.4068 3.90861L13.0581 2.15652C12.776 0.709258 11.3485 -0.227012 9.88148 0.0657809L2.78678 1.44625C1.53079 1.69674 0.611084 2.79332 0.611084 4.07359V21.374C0.611084 29.9741 6.83009 37.1826 15.0668 38.8302C15.3602 48.9065 24.151 57.0001 34.9166 57.0001C45.8628 57.0001 54.7777 48.6093 54.7777 38.297V29.5354C57.9634 28.1594 60.1944 25.0311 60.1944 21.3807C60.1944 16.4544 56.1545 12.4688 51.1666 12.4688ZM51.1666 24.047C49.6714 24.047 48.4583 22.8502 48.4583 21.3751C48.4583 19.9 49.6658 18.7032 51.1666 18.7032C52.6675 18.7032 53.875 19.8944 53.875 21.3751C53.875 22.8558 52.6675 24.047 51.1666 24.047Z" fill="black"/>
</svg>
