<svg width="53" height="62" viewBox="0 0 53 62" fill="none" xmlns="http://www.w3.org/2000/svg">
<path d="M30.2859 3.875V6.2C38.9221 7.99582 45.4288 15.8148 45.4288 25.1875V27.4641C45.4288 33.1676 47.4754 38.6531 51.1665 42.9156L52.042 43.9207C53.0357 45.0711 53.2841 46.6938 52.669 48.0863C52.0538 49.4789 50.7051 50.375 49.2145 50.375H3.78593C2.29531 50.375 0.943214 49.4789 0.332531 48.0863C-0.278152 46.6938 -0.0338912 45.0711 0.956582 43.9207L1.83392 42.9156C5.52972 38.6531 7.57164 33.1676 7.57164 27.4641V25.1875C7.57164 15.8148 13.9719 7.99582 22.7145 6.2V3.875C22.7145 1.73527 24.4062 0 26.5002 0C28.5942 0 30.2859 1.73527 30.2859 3.875ZM26.5002 62C24.4891 62 22.5607 61.1887 21.1411 59.7355C19.7214 58.2824 18.9288 56.1996 18.9288 54.25H34.0716C34.0716 56.1996 33.279 58.2824 31.8594 59.7355C30.4397 61.1887 28.4049 62 26.5002 62Z" fill="black"/>
</svg>
