<svg width="20" height="20" viewBox="0 0 20 20" fill="#3c4858" xmlns="http://www.w3.org/2000/svg">
<path d="M12.9609 8.75397C14.066 8.75397 15.1047 9.18326 15.8852 9.96373L16.6504 10.729C18.2133 10.036 19.4336 8.64694 19.8387 6.95358C20.0623 6.0192 20.0473 5.11451 19.8471 4.2817C19.745 3.8567 19.2053 3.7149 18.8963 4.02373L16.2049 6.71514H13.2518V3.79693L15.9432 1.10553C16.2522 0.796466 16.1101 0.2567 15.6852 0.154747C14.8524 -0.0454482 13.9477 -0.0604873 13.0133 0.163138C10.8532 0.679935 9.16995 2.51548 8.82581 4.71001C8.76953 5.03522 8.75781 5.35162 8.76172 5.66412L11.9953 8.90084C12.3125 8.79303 12.6367 8.75397 12.9609 8.75397ZM15 10.8829C14.0953 9.97819 12.7512 9.80592 11.6645 10.3399L7.46484 6.17194V3.74967L2.5 5.95815e-05L0 2.4649L3.75 7.42975L6.17344 7.43005L10.3414 11.5941C9.80742 12.6808 9.98004 14.025 10.8848 14.9297L15.4551 19.5039C16.0262 20.0703 16.9477 20.0703 17.5141 19.5038L19.5746 17.4433C20.141 16.8769 20.141 15.9558 19.5745 15.3843L15 10.8829ZM8.90234 11.9922L6.58984 9.68365L0.773438 15.5001C-0.256641 16.5301 -0.256641 18.1985 0.773438 19.2286C1.2875 19.7422 1.96133 20.0001 2.63672 20.0001C3.31211 20.0001 3.98594 19.7426 4.50078 19.2274L9.15313 14.5751C8.80859 13.7618 8.69531 12.8672 8.90234 11.9922ZM2.5 18.4376C1.98242 18.4376 1.5625 18.0176 1.5625 17.5001C1.5625 16.9821 1.98242 16.5626 2.5 16.5626C3.01758 16.5626 3.4375 16.9805 3.4375 17.5001C3.4375 18.0196 3.01758 18.4376 2.5 18.4376Z"/>
</svg>
