<svg width="25" height="20" viewBox="0 0 25 20" fill="#3c4858" xmlns="http://www.w3.org/2000/svg">
<path d="M6.11111 8.75H18.3333V6.61328C17.2524 6.09766 16.5 5.03125 16.5 3.75C16.5 2.02422 17.8674 0.625 19.5556 0.625C21.2437 0.625 22.6111 2.02422 22.6111 3.75C22.6111 5.03125 21.8587 6.09766 20.7778 6.61328V8.75H23.2222C23.8983 8.75 24.4444 9.30859 24.4444 10C24.4444 10.6914 23.8983 11.25 23.2222 11.25H13.4444V13.3867C14.5253 13.8672 15.2778 14.9688 15.2778 16.25C15.2778 17.9766 13.9104 19.375 12.2222 19.375C10.534 19.375 9.16667 17.9766 9.16667 16.25C9.16667 14.9688 9.9191 13.8672 11 13.3867V11.25H1.22222C0.547326 11.25 0 10.6914 0 10C0 9.30859 0.547326 8.75 1.22222 8.75H3.66667V6.61328C2.58767 6.09766 1.83333 5.03125 1.83333 3.75C1.83333 2.02422 3.20146 0.625 4.88889 0.625C6.57708 0.625 7.94444 2.02422 7.94444 3.75C7.94444 5.03125 7.19201 6.09766 6.11111 6.61328V8.75ZM4.88889 4.6875C5.39687 4.6875 5.80556 4.26953 5.80556 3.75C5.80556 3.23242 5.39687 2.8125 4.88889 2.8125C4.3809 2.8125 3.97222 3.23242 3.97222 3.75C3.97222 4.26953 4.3809 4.6875 4.88889 4.6875ZM19.5556 2.8125C19.0476 2.8125 18.6389 3.23242 18.6389 3.75C18.6389 4.26953 19.0476 4.6875 19.5556 4.6875C20.0635 4.6875 20.4722 4.26953 20.4722 3.75C20.4722 3.23242 20.0635 2.8125 19.5556 2.8125ZM12.2222 17.1875C12.7302 17.1875 13.1389 16.7695 13.1389 16.25C13.1389 15.7305 12.7302 15.3125 12.2222 15.3125C11.7142 15.3125 11.3056 15.7305 11.3056 16.25C11.3056 16.7695 11.7142 17.1875 12.2222 17.1875Z"/>
</svg>
