<svg width="19" height="22" viewBox="0 0 19 22" fill="#3c4858" xmlns="http://www.w3.org/2000/svg">
<path d="M10.8574 1.375V2.2C13.9534 2.83723 16.2859 5.61172 16.2859 8.9375V9.74531C16.2859 11.7691 17.0197 13.7156 18.3429 15.2281L18.6567 15.5848C19.013 15.993 19.102 16.5688 18.8815 17.0629C18.6609 17.557 18.1775 17.875 17.6431 17.875H1.35738C0.823002 17.875 0.33829 17.557 0.119366 17.0629C-0.0995584 16.5688 -0.011993 15.993 0.343082 15.5848L0.6576 15.2281C1.98251 13.7156 2.71452 11.7691 2.71452 9.74531V8.9375C2.71452 5.61172 5.00894 2.83723 8.14309 2.2V1.375C8.14309 0.615742 8.74956 0 9.50023 0C10.2509 0 10.8574 0.615742 10.8574 1.375ZM9.50023 22C8.77925 22 8.08796 21.7121 7.57903 21.1965C7.0701 20.6809 6.78595 19.9418 6.78595 19.25H12.2145C12.2145 19.9418 11.9304 20.6809 11.4214 21.1965C10.9125 21.7121 10.183 22 9.50023 22Z" />
</svg>
