<svg width="21" height="20" viewBox="0 0 21 20" fill="#3c4858" xmlns="http://www.w3.org/2000/svg">
<path d="M17.5714 4.375C15.862 4.375 14.4761 5.77422 14.4761 7.5C14.4761 8.78281 15.2426 9.88203 16.3375 10.3637V13.4379C16.3375 15.6742 14.3933 17.5004 12.0042 17.5004C9.68277 17.5004 7.77533 15.7777 7.67473 13.6242C10.4562 13.0391 12.619 10.5195 12.619 7.46484V1.42929C12.619 0.984764 12.3037 0.594139 11.873 0.511326L9.43863 0.0186501C8.93565 -0.083889 8.45048 0.243884 8.34911 0.751853L8.22375 1.36679C8.12219 1.87461 8.44862 2.3664 8.95152 2.46914L10.1389 2.70582V7.44922C10.1389 9.51484 8.5089 11.2238 6.4583 11.2434C4.39301 11.2629 2.71268 9.58086 2.71268 7.49609L2.70997 2.70976L3.89854 2.47101C4.40152 2.37336 4.72691 1.87922 4.62515 1.3714L4.5056 0.756639C4.40887 0.248826 3.91944 -0.0796898 3.41646 0.0230446L0.983989 0.50742C0.553364 0.59531 0.238037 0.980076 0.238037 1.42929V7.49961C0.238037 10.5172 2.37027 13.0465 5.19429 13.6246C5.29488 17.1602 8.30887 20 11.9999 20C15.7529 20 18.8095 17.0559 18.8095 13.4375V10.3633C19.9017 9.88047 20.6666 8.78281 20.6666 7.50195C20.6666 5.77344 19.2815 4.375 17.5714 4.375ZM17.5714 8.4375C17.0587 8.4375 16.6428 8.01758 16.6428 7.5C16.6428 6.98242 17.0568 6.5625 17.5714 6.5625C18.086 6.5625 18.4999 6.98047 18.4999 7.5C18.4999 8.01953 18.086 8.4375 17.5714 8.4375Z"/>
</svg>
