<svg width="20" height="20" viewBox="0 0 20 20" fill="#3c4858" xmlns="http://www.w3.org/2000/svg">
<path d="M7.35547 5.74609C7.64844 5.57812 8.01172 5.55078 8.30078 5.76172L13.9258 9.19922C14.2031 9.37109 14.375 9.67188 14.375 10C14.375 10.3281 14.2031 10.6289 13.9258 10.8008L8.30078 14.2383C8.01172 14.4141 7.64844 14.4219 7.35547 14.2539C7.05859 14.0898 6.875 13.7773 6.875 13.4375V6.52734C6.875 6.22266 7.05859 5.91016 7.35547 5.74609ZM20 10C20 15.5234 15.5234 20 10 20C4.47656 20 0 15.5234 0 10C0 4.47656 4.47656 0 10 0C15.5234 0 20 4.47656 20 10ZM10 1.875C5.51172 1.875 1.875 5.51172 1.875 10C1.875 14.4883 5.51172 18.125 10 18.125C14.4883 18.125 18.125 14.4883 18.125 10C18.125 5.51172 14.4883 1.875 10 1.875Z"/>
</svg>
