<svg width="64" height="56" viewBox="0 0 64 56" fill="none" xmlns="http://www.w3.org/2000/svg">
<path d="M60 32H4C1.7975 32 0 33.7975 0 36V52C0 54.2025 1.7975 56 4 56H60C62.2025 56 64 54.2025 64 52V36C64 33.8 62.2 32 60 32ZM44 47C42.3438 47 41 45.6562 41 44C41 42.3438 42.3438 41 44 41C45.6562 41 47 42.3438 47 44C47 45.6562 45.6625 47 44 47ZM52 47C50.3438 47 49 45.6562 49 44C49 42.3438 50.3438 41 52 41C53.6562 41 55 42.3438 55 44C55 45.6562 53.6625 47 52 47ZM60 0H4C1.7975 0 0 1.7975 0 4V20C0 22.2025 1.7975 24 4 24H60C62.2025 24 64 22.2025 64 20V4C64 1.7975 62.2 0 60 0ZM44 15C42.3438 15 41 13.6562 41 12C41 10.3438 42.35 9 44 9C45.65 9 47 10.35 47 12C47 13.65 45.6625 15 44 15ZM52 15C50.3438 15 49 13.6562 49 12C49 10.3438 50.35 9 52 9C53.65 9 55 10.35 55 12C55 13.65 53.6625 15 52 15Z" fill="black"/>
</svg>
