<svg width="64" height="57" viewBox="0 0 64 57" fill="none" xmlns="http://www.w3.org/2000/svg">
<path d="M64 3.54398C64 1.58544 62.4078 0.100762 60.4444 0.100762L35.5556 0.10022C33.9233 0.10022 32.5022 1.20736 32.1056 2.78504L21.9889 42.9904L13.8444 26.7597C13.2444 25.5639 12.0111 24.8 10.6667 24.8H3.55556C1.59222 24.8 0 26.3843 0 28.2432C0 30.1021 1.59222 31.7861 3.55556 31.7861H8.46889L19.9356 54.6264C20.5432 55.8343 21.78 56.5839 23.1144 56.5839C23.2447 56.5839 23.3726 56.5775 23.5028 56.5637C24.9817 56.401 26.2039 55.3392 26.565 53.8999L38.3317 6.97915H60.4444C62.4111 7.08683 64 5.50251 64 3.54398ZM62.9556 25.8407C61.5667 24.4568 59.3167 24.4568 57.9278 25.8407L53.3333 30.4243L48.7356 25.844C47.3467 24.4601 45.0967 24.4601 43.7078 25.844C42.3189 27.228 42.3189 29.4699 43.7078 30.8539L48.3056 35.4352L43.7078 40.0166C42.3189 41.4005 42.3189 43.6425 43.7078 45.0264C44.4 45.7139 45.3111 46.0572 46.2222 46.0572C47.1333 46.0572 48.0422 45.7112 48.7356 45.0192L53.3333 40.4439L57.9311 45.0253C58.6222 45.7139 59.5333 46.0572 60.4444 46.0572C61.3556 46.0572 62.2644 45.7112 62.9578 45.0192C64.3467 43.6353 64.3467 41.3933 62.9578 40.0094L58.36 35.428L62.9556 30.845C64.3444 29.4611 64.3444 27.2247 62.9556 25.8407Z" fill="black"/>
</svg>
