<svg width="64" height="51" viewBox="0 0 64 51" fill="none" xmlns="http://www.w3.org/2000/svg">
<path d="M1.04133 6.64438C-0.347111 5.25278 -0.347111 2.99727 1.04133 1.60567C2.43 0.215183 4.68111 0.215183 6.07 1.60567L27.4 22.984C28.7889 24.3756 28.7889 26.6244 27.4 28.016L6.07 49.391C4.68111 50.7826 2.43 50.7826 1.04133 49.391C-0.347111 47.9994 -0.347111 45.7506 1.04133 44.359L19.8556 25.5L1.04133 6.64438ZM60.4444 43.3125C62.4111 43.3125 64 44.9045 64 46.875C64 48.8455 62.4111 50.4375 60.4444 50.4375H28.4444C26.4778 50.4375 24.8889 48.8455 24.8889 46.875C24.8889 44.9045 26.4778 43.3125 28.4444 43.3125H60.4444Z" fill="black"/>
</svg>
