<svg width="63" height="62" viewBox="0 0 63 62" fill="none" xmlns="http://www.w3.org/2000/svg">
<path d="M31.5838 0.262208C48.7272 0.265737 62.7988 14.1367 62.7771 31.0108C62.7553 48.1412 48.7413 61.8198 31.2252 61.8075C14.1008 61.7956 0.25514 47.9102 0.26722 30.7606C0.279005 13.9909 14.3798 0.258678 31.5838 0.262208ZM22.1074 11.0621C22.5003 12.9821 22.1186 14.7728 21.5376 16.5341C21.1351 17.7537 20.5788 18.9281 20.2466 20.1643C19.6992 22.2014 19.0782 24.2503 18.8505 26.3337C18.523 29.3295 19.7093 31.9682 21.7392 34.5919L12.4082 32.6422C12.4246 32.9349 12.4072 33.0456 12.4393 33.1395C13.3236 35.718 14.8801 37.8905 16.6248 39.9385C16.8094 40.1551 17.2297 40.2664 17.5409 40.267C26.8447 40.2841 36.1486 40.2831 45.4525 40.2711C45.7411 40.2707 46.1262 40.2166 46.3033 40.0319C48.2974 37.9513 49.8223 35.582 50.7756 32.5969L40.8975 34.5166C41.549 33.2493 42.2929 32.1348 42.7205 30.9102C44.1831 26.7212 43.5769 22.6714 41.4776 18.8517C39.7929 15.7864 38.2389 12.7345 39.0794 9.04031C37.2999 10.7838 36.6168 13.0035 36.1831 15.2912C35.756 17.5443 35.5044 19.8306 35.1737 22.1165C35.1267 22.0475 35.0658 21.9965 35.0563 21.9372C35.018 21.6974 34.9823 21.4557 34.9693 21.2134C34.7684 17.469 34.0315 13.8612 32.4764 10.4157C31.561 8.38747 30.5514 6.3138 31.4951 3.89437C30.8565 4.22866 30.2793 4.56074 29.8655 5.03504C28.6305 6.45072 28.1199 8.15099 27.9885 10.0126C27.8762 11.603 27.7224 13.2009 27.4253 14.765C27.1131 16.4085 26.618 18.0195 25.5054 19.53C25.0557 16.3032 25.0057 13.1121 22.1074 11.0621ZM46.0962 43.0946H16.9151V48.1255H46.0962V43.0946ZM22.7011 50.7245C22.6771 54.9138 26.9766 58.0349 32.2904 57.8084C36.694 57.6207 40.5915 54.1822 40.2563 50.7245H22.7011Z" fill="black"/>
</svg>
