<svg width="59" height="68" viewBox="0 0 59 68" fill="none" xmlns="http://www.w3.org/2000/svg">
<path d="M21.0714 4.25V8.5H37.9286V4.25C37.9286 1.9032 39.8118 0 42.1429 0C44.4739 0 46.3571 1.9032 46.3571 4.25V8.5H52.6786C56.1685 8.5 59 11.3541 59 14.875V21.25H0V14.875C0 11.3541 2.83016 8.5 6.32143 8.5H12.6429V4.25C12.6429 1.9032 14.5261 0 16.8571 0C19.1882 0 21.0714 1.9032 21.0714 4.25ZM0 25.5H59V61.625C59 65.1445 56.1685 68 52.6786 68H6.32143C2.83016 68 0 65.1445 0 61.625V25.5ZM43.2096 40.3883C44.5529 39.2594 44.5529 37.2406 43.2096 35.9922C42.0902 34.757 40.0884 34.757 38.8504 35.9922L26.3393 48.6227L20.031 42.3672C18.9116 41.132 16.9098 41.132 15.6719 42.3672C14.4471 43.6156 14.4471 45.6344 15.6719 46.7633L24.1004 55.2633C25.3384 56.618 27.3402 56.618 28.4596 55.2633L43.2096 40.3883Z" fill="black"/>
</svg>
