<?xml version="1.0" standalone="no"?><!DOCTYPE svg PUBLIC "-//W3C//DTD SVG 1.1//EN" "http://www.w3.org/Graphics/SVG/1.1/DTD/svg11.dtd"><svg t="1620637747970" class="icon" viewBox="0 0 1024 1024" version="1.1" xmlns="http://www.w3.org/2000/svg" p-id="1846" width="128" height="128" data-spm-anchor-id="a313x.7781069.0.i9" xmlns:xlink="http://www.w3.org/1999/xlink"><defs><style type="text/css"></style></defs><path d="M880.702 563.34c-2.501 3.002-6.503 5.004-10.506 5.504-0.5 0-1 0-1.501 0-4.002 0-7.504-1-10.505-3.502L512 276.683 165.81 565.342c-3.502 2.502-7.504 4.002-12.007 3.502-4.002-0.5-8.004-2.502-10.506-5.504l-31.017-37.02c-5.503-6.504-4.502-17.009 2.001-22.512l359.697-299.665c21.012-17.51 55.03-17.51 76.042 0L672.088 306.2l0-97.554c0-9.005 7.004-16.009 16.009-16.009l96.053 0c9.005 0 16.009 7.004 16.009 16.009l0 204.112 109.561 91.05c6.503 5.503 7.504 16.008 2.001 22.512L880.702 563.34zM800.158 800.971c0 17.51-14.508 32.018-32.018 32.018L576.035 832.989 576.035 640.883l-128.07 0 0 192.105L255.859 832.988c-17.51 0-32.018-14.508-32.018-32.018L223.841 560.84c0-1.002 0.5-2.002 0.5-3.002L512 320.708l287.658 237.13c0.5 1 0.5 2 0.5 3.002L800.158 800.971z" p-id="1847" fill="#BFCBD9" data-spm-anchor-id="a313x.7781069.0.i8" class=""></path></svg>