<svg t="1627525898894" class="icon" viewBox="0 0 1024 1024" version="1.1" xmlns="http://www.w3.org/2000/svg" p-id="3947" width="128" height="128"><path d="M931.84 440.32a92.16 92.16 0 0 0 92.16-92.16V92.16a92.16 92.16 0 0 0-92.16-92.16H675.84a92.16 92.16 0 0 0-92.16 92.16v87.04H450.56V92.16a92.16 92.16 0 0 0-92.16-92.16H92.16a92.16 92.16 0 0 0-92.16 92.16v839.68a92.16 92.16 0 0 0 92.16 92.16h266.24a92.16 92.16 0 0 0 92.16-92.16V261.12h133.12V348.16a92.16 92.16 0 0 0 92.16 92.16h87.04v143.36H675.84a92.16 92.16 0 0 0-92.16 92.16v256a92.16 92.16 0 0 0 92.16 92.16h256a92.16 92.16 0 0 0 92.16-92.16V675.84a92.16 92.16 0 0 0-92.16-92.16h-87.04V440.32zM368.64 911.36a30.72 30.72 0 0 1-30.72 30.72H112.64a30.72 30.72 0 0 1-30.72-30.72V112.64a30.72 30.72 0 0 1 30.72-30.72h225.28a30.72 30.72 0 0 1 30.72 30.72z m573.44-215.04v215.04a30.72 30.72 0 0 1-30.72 30.72H696.32a30.72 30.72 0 0 1-30.72-30.72V696.32a30.72 30.72 0 0 1 30.72-30.72h215.04a30.72 30.72 0 0 1 30.72 30.72zM665.6 327.68V112.64a30.72 30.72 0 0 1 30.72-30.72h215.04a30.72 30.72 0 0 1 30.72 30.72v215.04a30.72 30.72 0 0 1-30.72 30.72H696.32a30.72 30.72 0 0 1-30.72-30.72z" p-id="3948"></path></svg>