<svg t="1627526028913" class="icon" viewBox="0 0 1024 1024" version="1.1" xmlns="http://www.w3.org/2000/svg" p-id="7597" width="128" height="128"><path d="M330.535882 284.868265h-91.335366c-5.894952 0-10.492044 2.425906-10.492045 5.264216v45.76472c0 2.959606 4.779035 5.264216 10.492045 5.264216h91.335366c5.713009 0 10.504174-2.425906 10.504174-5.264216v-45.76472c0-2.947476-4.803294-5.264216-10.504174-5.264216z m456.143135 455.099995H464.336736c-4.985237 0-8.878817 3.226455-8.878816 7.095776v42.962798c0 3.978486 4.051263 7.083646 8.878816 7.083646H786.509204c4.851812 0 8.890946-3.214326 9.04863-7.083646v-42.962798c0-3.978486-4.039134-7.095776-8.878817-7.095776zM330.535882 512.260579h-91.335366c-5.894952 0-10.492044 2.425906-10.492045 5.252087v45.788978c0 2.935346 4.779035 5.252087 10.492045 5.252087h91.335366c5.713009 0 10.504174-2.425906 10.504174-5.252087v-45.74046c0-2.874699-4.803294-5.300605-10.504174-5.300605z m456.143135-227.186112H464.336736c-4.985237 0-8.878817 3.165808-8.878816 6.938092v41.943917c0 3.893579 4.051263 6.938092 8.878816 6.938092H786.509204c4.851812 0 8.890946-3.044512 9.04863-6.938092v-41.943917c0-3.893579-4.039134-6.938092-8.878817-6.938092zM330.535882 739.71354h-91.335366c-5.894952 0-10.492044 2.425906-10.492045 5.252087v45.788979c0 2.935346 4.779035 5.252087 10.492045 5.252086h91.335366c5.713009 0 10.504174-2.31674 10.504174-5.252086v-45.788979c0-2.935346-4.803294-5.252087-10.504174-5.252087z m456.143135-227.246759H464.336736c-4.985237 0-8.878817 3.165808-8.878816 6.950221v41.956047c0 3.905709 4.051263 6.950221 8.878816 6.950221H786.509204c4.851812 0 8.890946-3.044512 9.04863-6.950221v-41.956047c0-3.905709-4.039134-6.950221-8.878817-6.950221z m235.531229-381.643557s0-41.240405-22.50028-77.628997C982.352608 25.102234 951.495081 0.006235 896.524048 0.006235H533.717653a1.479803 1.479803 0 0 0-0.812679 0.157683H127.244946S1.728562 0.163918 1.728562 130.786836l0.157684 300.072462v462.486879s0 41.313182 22.342595 77.459184c17.357359 28.091993 48.214885 53.187992 103.185919 53.187992h419.681765a1.309989 1.309989 0 0 0 0.788419-0.169813h348.784658s125.540644-0.01213 125.540644-130.695695l-0.169814-300.048203 0.169814-0.169813z m-57.372681 770.225205c-2.110538 65.499466-63.219114 66.397052-63.219114 66.397051H122.963222c-2.110538-0.169813-4.063393-0.351756-6.173931-0.50944-8.78178-1.867948-25.472015-6.98661-38.814499-19.90456-14.616085-16.508291-18.194296-37.977561-19.019104-44.430471v-1.212953l0.169813-778.485416c2.098409-65.499466 63.219114-66.360663 63.219115-66.360662h778.570322c2.098409 0.157684 4.063393 0.339627 6.064765 0.49731 8.78178 1.867948 25.472015 6.98661 38.814499 19.90456 14.616085 16.520421 18.194296 37.783488 19.019104 44.272788a2.995994 2.995994 0 0 0 0.157684 1.212953z" p-id="7598"></path></svg>