<?xml version="1.0" standalone="no"?><!DOCTYPE svg PUBLIC "-//W3C//DTD SVG 1.1//EN" "http://www.w3.org/Graphics/SVG/1.1/DTD/svg11.dtd"><svg t="1629445831734" class="icon" viewBox="0 0 1024 1024" version="1.1" xmlns="http://www.w3.org/2000/svg" p-id="1218" xmlns:xlink="http://www.w3.org/1999/xlink" width="128" height="128"><defs><style type="text/css"></style></defs><path d="M148.945455 428.218182h-125.672728V377.018182h139.636364c9.309091 0 23.272727 4.654545 27.927273 18.618182l51.2 102.4 93.090909-339.781819c0-18.618182 13.963636-32.581818 32.581818-27.927272 18.618182 0 32.581818 13.963636 32.581818 27.927272l79.127273 432.872728 102.4-293.236364c4.654545-13.963636 18.618182-23.272727 32.581818-23.272727 13.963636 0 27.927273 4.654545 32.581818 18.618182l41.890909 88.436363h107.054546v51.2h-121.018182c-9.309091 0-23.272727-4.654545-27.927273-18.618182l-32.581818-65.163636-111.709091 316.509091c-4.654545 13.963636-18.618182 23.272727-37.236364 23.272727-13.963636 0-27.927273-13.963636-32.581818-27.927272l-69.818182-428.218182-83.781818 311.854545c-4.654545 13.963636-13.963636 23.272727-32.581818 27.927273-13.963636 0-27.927273-4.654545-37.236364-18.618182l-60.50909-125.672727zM749.381818 963.490909c-55.854545 0-111.709091-23.272727-148.945454-60.509091-41.890909-41.890909-60.509091-93.090909-60.509091-148.945454 0-55.854545 23.272727-111.709091 60.509091-148.945455 41.890909-41.890909 93.090909-60.509091 148.945454-60.509091 55.854545 0 111.709091 23.272727 148.945455 60.509091 41.890909 41.890909 60.509091 93.090909 60.509091 148.945455 0 55.854545-23.272727 111.709091-60.509091 148.945454-9.309091 9.309091-23.272727 9.309091-32.581818 0-9.309091-9.309091-9.309091-23.272727 0-32.581818 32.581818-32.581818 46.545455-74.472727 46.545454-116.363636 0-46.545455-18.618182-88.436364-46.545454-116.363637-65.163636-65.163636-172.218182-65.163636-237.381819 0-32.581818 32.581818-46.545455 74.472727-46.545454 116.363637 0 46.545455 18.618182 88.436364 46.545454 116.363636 41.890909 41.890909 102.4 60.509091 162.909091 41.890909 13.963636-4.654545 23.272727 4.654545 27.927273 18.618182 4.654545 13.963636-4.654545 23.272727-18.618182 27.927273-13.963636 0-32.581818 4.654545-51.2 4.654545z" fill="" p-id="1219"></path><path d="M1000.727273 1024c-4.654545 0-13.963636 0-18.618182-4.654545l-107.054546-107.054546c-9.309091-9.309091-9.309091-23.272727 0-32.581818 9.309091-9.309091 23.272727-9.309091 32.581819 0l107.054545 107.054545c9.309091 9.309091 9.309091 23.272727 0 32.581819-4.654545 0-9.309091 4.654545-13.963636 4.654545zM493.381818 847.127273h-390.981818c-27.927273 0-51.2-23.272727-51.2-51.2v-693.527273c0-27.927273 23.272727-51.2 51.2-51.2h609.745455c27.927273 0 51.2 23.272727 51.2 51.2v367.709091c18.618182 0 32.581818 4.654545 51.2 9.309091v-377.018182c0-55.854545-46.545455-102.4-102.4-102.4h-609.745455c-55.854545 0-102.4 46.545455-102.4 102.4V795.927273c0 55.854545 46.545455 102.4 102.4 102.4h423.563636c-13.963636-18.618182-23.272727-32.581818-32.581818-51.2z" fill="" p-id="1220"></path></svg>