<svg width="24" height="24" viewBox="0 0 24 24" fill="none" xmlns="http://www.w3.org/2000/svg">
<rect opacity="0.01" width="24" height="24" fill="url(#paint0_linear)"/>
<path fill-rule="evenodd" clip-rule="evenodd" d="M2.40002 4.40002C2.40002 3.29545 3.29545 2.40002 4.40002 2.40002H8.80002C9.90459 2.40002 10.8 3.29545 10.8 4.40002V5.59998H13.2V4.40003C13.2 3.29546 14.0954 2.40002 15.2 2.40002H19.6C20.7046 2.40002 21.6 3.29545 21.6 4.40002V8.80002C21.6 9.90459 20.7046 10.8 19.6 10.8H18.4V13.2H19.6C20.7046 13.2 21.6 14.0954 21.6 15.2V19.6C21.6 20.7046 20.7046 21.6 19.6 21.6H15.2C14.0954 21.6 13.2 20.7046 13.2 19.6V15.2C13.2 14.0954 14.0954 13.2 15.2 13.2H16.4V10.8H15.2C14.0954 10.8 13.2 9.90459 13.2 8.80002V7.59998H10.8V19.6C10.8 20.7046 9.90459 21.6 8.80002 21.6H4.40003C3.29546 21.6 2.40002 20.7046 2.40002 19.6V4.40002Z" fill="url(#paint1_linear)"/>
<defs>
<linearGradient id="paint0_linear" x1="12" y1="0" x2="12" y2="24" gradientUnits="userSpaceOnUse">
<stop stop-color="white"/>
<stop offset="1" stop-color="white" stop-opacity="0.6"/>
</linearGradient>
<linearGradient id="paint1_linear" x1="12" y1="2.40002" x2="12" y2="21.6" gradientUnits="userSpaceOnUse">
<stop stop-color="white"/>
<stop offset="1" stop-color="white" stop-opacity="0.6"/>
</linearGradient>
</defs>
</svg>
