<svg t="1628563715604" class="icon" viewBox="0 0 1024 1024" version="1.1" xmlns="http://www.w3.org/2000/svg" p-id="2149" width="128" height="128"><path d="M955.312104 267.524842c-45.784147-78.445747-107.88742-140.551355-186.326162-186.330832-78.450417-45.781812-164.094886-68.666881-256.994114-68.666881-92.887554 0-178.560042 22.892074-256.994115 68.666881-78.445747 45.777142-140.546685 107.885085-186.330832 186.330832C22.889739 345.968254 0 431.629068 0 524.504947c0 111.565002 32.549521 211.88711 97.664909 300.992008 65.108382 89.111903 149.218774 150.773866 252.324169 184.992892 12.00176 2.227564 20.886332 0.660797 26.663054-4.660606 5.779058-5.328408 8.665084-12.00176 8.665085-19.992037 0-1.333269-0.114414-13.328025-0.336237-35.998276a5953.737074 5953.737074 0 0 1-0.336236-59.32232l-15.333766 2.652529c-9.776531 1.790924-22.109858 2.54979-36.99998 2.334973-14.883117-0.207813-30.333632-1.767574-46.330531-4.667611-16.003904-2.874352-30.889356-9.540699-44.66803-19.985032-13.77167-10.444333-23.548201-24.115599-29.327259-40.992783l-6.666347-15.340772c-4.443453-10.213171-11.439032-21.558804-20.996076-33.994869-9.557044-12.44774-19.221496-20.886332-28.998027-25.329785l-4.667611-3.341346c-3.110184-2.220559-5.99621-4.898773-8.665084-8.006622-2.666539-3.107849-4.662941-6.218033-5.99621-9.332887-1.335604-3.117189-0.228827-5.673984 3.332006-7.679725 3.560834-2.005742 9.996019-2.979425 19.333575-2.979426l13.328025 1.991732c8.889242 1.781584 19.884629 7.102987 33.000171 15.996899 13.108537 8.886907 23.884437 20.440352 32.330034 34.655667 10.227181 18.226798 22.548833 32.115216 36.999979 41.67226 14.439472 9.557044 28.998028 14.327393 43.661657 14.327393 14.663629 0 27.328522-1.111447 37.999348-3.322666 10.659151-2.222894 20.65984-5.56424 29.997396-10.005359 3.999808-29.789583 14.890122-52.674652 32.6616-68.671551-25.329785-2.661869-48.102775-6.671017-68.330645-12.00176-20.216195-5.337748-41.107197-14.000497-62.658996-26.011597-21.563474-11.994755-39.451701-26.889547-53.669351-44.658691-14.219985-17.778483-25.890179-41.118872-34.994237-70.00015-9.108729-28.892954-13.664261-62.222356-13.664261-99.997547 0-53.786099 17.558996-99.556237 52.669982-137.336097-16.447549-40.437059-14.894792-85.768222 4.662941-135.988817 12.88905-4.004478 32.003138-0.999368 57.332922 8.99665 25.334455 10.000689 43.883479 18.567704 55.665753 25.670691 11.782273 7.100652 21.222568 13.117877 28.334895 17.997971 41.340694-11.551111 84.002983-17.327833 127.998541-17.327833s86.667187 5.776723 128.010215 17.327833l25.33212-15.992229c17.323163-10.670826 37.77986-20.449692 61.321057-29.338934 23.555206-8.884572 41.567186-11.331623 54.017261-7.327144 19.992037 50.222931 21.773622 95.551758 5.321403 135.988817 35.108651 37.77986 52.674652 83.561673 52.674653 137.336097 0 37.77519-4.571877 71.209666-13.666596 100.324443-9.106394 29.119446-20.876992 52.436485-35.316465 70.00015-14.455817 17.561331-32.458457 32.339374-54.010256 44.331795-21.556469 12.00176-42.454476 20.66451-62.670671 26.002257-20.225535 5.337748-42.998525 9.349231-68.32831 12.01577 23.102221 19.992037 34.655667 51.549195 34.655667 94.657464v140.651758c0 7.990277 2.778618 14.661294 8.340523 19.992038 5.5549 5.321403 14.327393 6.88817 26.329154 4.65827 103.119405-34.214357 187.229796-95.878654 252.335843-184.990557 65.099043-89.104898 97.660239-189.427006 97.660239-300.992008-0.02335-92.864204-22.924763-178.518013-68.680891-256.961425z" fill="" p-id="2150"></path></svg>