<?xml version="1.0" standalone="no"?><!DOCTYPE svg PUBLIC "-//W3C//DTD SVG 1.1//EN" "http://www.w3.org/Graphics/SVG/1.1/DTD/svg11.dtd"><svg t="1629445996051" class="icon" viewBox="0 0 1027 1024" version="1.1" xmlns="http://www.w3.org/2000/svg" p-id="2852" xmlns:xlink="http://www.w3.org/1999/xlink" width="128.375" height="128"><defs><style type="text/css"></style></defs><path d="M851.2 1024c-44.8 0-89.6-19.2-121.6-51.2L563.2 806.4c-153.6 57.6-332.8 25.6-448-96C0 588.8-32 403.2 38.4 243.2 44.8 236.8 51.2 224 64 224s19.2 0 25.6 6.4l204.8 204.8L441.6 288 236.8 89.6C230.4 83.2 224 70.4 224 64s6.4-19.2 19.2-25.6C403.2-32 588.8 0 716.8 121.6c115.2 115.2 153.6 288 96 441.6l166.4 166.4c64 64 64 172.8 0 236.8-38.4 38.4-76.8 57.6-128 57.6zM576 736c6.4 0 19.2 6.4 25.6 6.4l179.2 179.2c38.4 38.4 108.8 38.4 147.2 0 38.4-38.4 38.4-108.8 0-147.2L748.8 595.2c-6.4-6.4-12.8-25.6-6.4-38.4 57.6-134.4 32-288-70.4-396.8-96-83.2-230.4-115.2-358.4-83.2l192 192c12.8 19.2 12.8 38.4 6.4 51.2L320 512c-12.8 12.8-32 12.8-44.8 0l-192-192c-44.8 121.6-6.4 256 83.2 352 102.4 102.4 262.4 134.4 396.8 70.4 6.4-6.4 6.4-6.4 12.8-6.4z" p-id="2853"></path></svg>