<?xml version="1.0" standalone="no"?><!DOCTYPE svg PUBLIC "-//W3C//DTD SVG 1.1//EN" "http://www.w3.org/Graphics/SVG/1.1/DTD/svg11.dtd"><svg t="1629446079093" class="icon" viewBox="0 0 1024 1024" version="1.1" xmlns="http://www.w3.org/2000/svg" p-id="4710" xmlns:xlink="http://www.w3.org/1999/xlink" width="128" height="128"><defs><style type="text/css"></style></defs><path d="M739.555556 56.888889h56.888888a227.555556 227.555556 0 1 1 0 455.111111h-56.888888V455.111111h56.888888a170.666667 170.666667 0 0 0 0-341.333333h-56.888888V56.888889zM284.444444 512H227.555556a227.555556 227.555556 0 1 0 0 455.111111h56.888888v-56.888889H227.555556a170.666667 170.666667 0 0 1 0-341.333333h56.888888V512z" fill="#666666" opacity=".5" p-id="4711"></path><path d="M398.222222 796.444444h227.555556a113.777778 113.777778 0 1 1 0 227.555556H398.222222a113.777778 113.777778 0 1 1 0-227.555556z m0 56.888889a56.888889 56.888889 0 0 0 0 113.777778h227.555556a56.888889 56.888889 0 0 0 0-113.777778H398.222222zM398.222222 398.222222h227.555556a113.777778 113.777778 0 1 1 0 227.555556H398.222222a113.777778 113.777778 0 1 1 0-227.555556z m0 56.888889a56.888889 56.888889 0 1 0 0 113.777778h227.555556a56.888889 56.888889 0 0 0 0-113.777778H398.222222zM398.222222 0h227.555556a113.777778 113.777778 0 1 1 0 227.555556H398.222222a113.777778 113.777778 0 1 1 0-227.555556z m0 56.888889a56.888889 56.888889 0 1 0 0 113.777778h227.555556a56.888889 56.888889 0 0 0 0-113.777778H398.222222z" fill="#666666" opacity=".5" p-id="4712"></path></svg>