<?xml version="1.0" standalone="no"?><!DOCTYPE svg PUBLIC "-//W3C//DTD SVG 1.1//EN" "http://www.w3.org/Graphics/SVG/1.1/DTD/svg11.dtd"><svg t="1629446134165" class="icon" viewBox="0 0 1024 1024" version="1.1" xmlns="http://www.w3.org/2000/svg" p-id="6596" xmlns:xlink="http://www.w3.org/1999/xlink" width="128" height="128"><defs><style type="text/css"></style></defs><path d="M881.40745 772.246738l-3.043979 3.164978a41.147716 41.147716 0 0 1-55.999614 1.947987 38.127737 38.127737 0 0 1-4.138971-53.807629l9.739932-11.199922a395.647268 395.647268 0 1 0-632.475633 0.486996l6.841953 9.251936a40.319722 40.319722 0 0 1-6.110958 55.512617l-0.340997 0.242999a37.66574 37.66574 0 0 1-53.564631-4.38197 474.776722 474.776722 0 1 1 739.091898-1.217992zM714.942599 353.957626a236.778365 236.778365 0 0 1 3.189978 235.196376l-1.996986 3.895973a40.173723 40.173723 0 0 1-50.496652 19.477866 36.886745 36.886745 0 0 1-20.889856-47.721671l15.799891-40.416721a158.258907 158.258907 0 1 0-299.74093 1.46099l14.827897 37.73874a37.519741 37.519741 0 0 1-21.328852 48.694664l-0.559996 0.243998a39.369728 39.369728 0 0 1-50.326653-21.912849 237.168363 237.168363 0 0 1 206.954571-353.282561 237.412361 237.412361 0 0 1 204.445589 116.625195zM485.150185 637.361669a35.619754 35.619754 0 0 1 54.051627 0L854.990632 973.600348a30.579789 30.579789 0 0 1 2.725981 32.869773 34.086765 34.086765 0 0 1-29.362797 17.529879H195.855183a34.086765 34.086765 0 0 1-29.752795-17.773877 31.115785 31.115785 0 0 1 0-32.625775z m276.612091 323.577766L512.566996 705.536199 262.566722 960.940435h499.123554z" p-id="6597"></path></svg>